<?xml version="1.0" encoding="utf-8"?>
<!DOCTYPE svg PUBLIC "-//W3C//DTD SVG 1.1//EN" "http://www.w3.org/Graphics/SVG/1.1/DTD/svg11.dtd">
<svg xmlns="http://www.w3.org/2000/svg" xmlns:xlink="http://www.w3.org/1999/xlink" version="1.1" class="marks" width="518" height="253" viewBox="0 0 518 253"><rect width="518" height="253" fill="white"/><g fill="none" stroke-miterlimit="10" transform="translate(51,10)"><g class="mark-group role-frame root" role="graphics-object" aria-roledescription="group mark container"><g transform="translate(0,0)"><path class="background" aria-hidden="true" d="M0.5,0.5h380v200h-380Z" stroke="#ddd"/><g><g class="mark-group role-axis" aria-hidden="true"><g transform="translate(0.5,0.5)"><path class="background" aria-hidden="true" d="M0,0h0v0h0Z" pointer-events="none"/><g><g class="mark-rule role-axis-grid" pointer-events="none"><line transform="translate(0,200)" x2="380" y2="0" stroke="#ddd" stroke-width="1" opacity="1"/><line transform="translate(0,160)" x2="380" y2="0" stroke="#ddd" stroke-width="1" opacity="1"/><line transform="translate(0,120)" x2="380" y2="0" stroke="#ddd" stroke-width="1" opacity="1"/><line transform="translate(0,80)" x2="380" y2="0" stroke="#ddd" stroke-width="1" opacity="1"/><line transform="translate(0,40)" x2="380" y2="0" stroke="#ddd" stroke-width="1" opacity="1"/><line transform="translate(0,0)" x2="380" y2="0" stroke="#ddd" stroke-width="1" opacity="1"/></g></g><path class="foreground" aria-hidden="true" d="" pointer-events="none" display="none"/></g></g><g class="mark-group role-axis" role="graphics-symbol" aria-roledescription="axis" aria-label="X-axis titled 'age' for a discrete scale with 19 values: 0, 5, 10, 15, 20, ending with 90"><g transform="translate(0.5,200.5)"><path class="background" aria-hidden="true" d="M0,0h0v0h0Z" pointer-events="none"/><g><g class="mark-rule role-axis-tick" pointer-events="none"><line transform="translate(10,0)" x2="0" y2="5" stroke="#888" stroke-width="1" opacity="1"/><line transform="translate(30,0)" x2="0" y2="5" stroke="#888" stroke-width="1" opacity="1"/><line transform="translate(50,0)" x2="0" y2="5" stroke="#888" stroke-width="1" opacity="1"/><line transform="translate(70,0)" x2="0" y2="5" stroke="#888" stroke-width="1" opacity="1"/><line transform="translate(90,0)" x2="0" y2="5" stroke="#888" stroke-width="1" opacity="1"/><line transform="translate(110,0)" x2="0" y2="5" stroke="#888" stroke-width="1" opacity="1"/><line transform="translate(130,0)" x2="0" y2="5" stroke="#888" stroke-width="1" opacity="1"/><line transform="translate(150,0)" x2="0" y2="5" stroke="#888" stroke-width="1" opacity="1"/><line transform="translate(170,0)" x2="0" y2="5" stroke="#888" stroke-width="1" opacity="1"/><line transform="translate(190,0)" x2="0" y2="5" stroke="#888" stroke-width="1" opacity="1"/><line transform="translate(210,0)" x2="0" y2="5" stroke="#888" stroke-width="1" opacity="1"/><line transform="translate(230,0)" x2="0" y2="5" stroke="#888" stroke-width="1" opacity="1"/><line transform="translate(250,0)" x2="0" y2="5" stroke="#888" stroke-width="1" opacity="1"/><line transform="translate(270,0)" x2="0" y2="5" stroke="#888" stroke-width="1" opacity="1"/><line transform="translate(290,0)" x2="0" y2="5" stroke="#888" stroke-width="1" opacity="1"/><line transform="translate(310,0)" x2="0" y2="5" stroke="#888" stroke-width="1" opacity="1"/><line transform="translate(330,0)" x2="0" y2="5" stroke="#888" stroke-width="1" opacity="1"/><line transform="translate(350,0)" x2="0" y2="5" stroke="#888" stroke-width="1" opacity="1"/><line transform="translate(370,0)" x2="0" y2="5" stroke="#888" stroke-width="1" opacity="1"/></g><g class="mark-text role-axis-label" pointer-events="none"><text text-anchor="end" transform="translate(9.5,7) rotate(270) translate(0,3)" font-family="sans-serif" font-size="10px" fill="#000" opacity="1">0</text><text text-anchor="end" transform="translate(29.5,7) rotate(270) translate(0,3)" font-family="sans-serif" font-size="10px" fill="#000" opacity="1">5</text><text text-anchor="end" transform="translate(49.5,7) rotate(270) translate(0,3)" font-family="sans-serif" font-size="10px" fill="#000" opacity="1">10</text><text text-anchor="end" transform="translate(69.5,7) rotate(270) translate(0,3)" font-family="sans-serif" font-size="10px" fill="#000" opacity="1">15</text><text text-anchor="end" transform="translate(89.5,7) rotate(270) translate(0,3)" font-family="sans-serif" font-size="10px" fill="#000" opacity="1">20</text><text text-anchor="end" transform="translate(109.5,7) rotate(270) translate(0,3)" font-family="sans-serif" font-size="10px" fill="#000" opacity="1">25</text><text text-anchor="end" transform="translate(129.5,7) rotate(270) translate(0,3)" font-family="sans-serif" font-size="10px" fill="#000" opacity="1">30</text><text text-anchor="end" transform="translate(149.5,7) rotate(270) translate(0,3)" font-family="sans-serif" font-size="10px" fill="#000" opacity="1">35</text><text text-anchor="end" transform="translate(169.5,7) rotate(270) translate(0,3)" font-family="sans-serif" font-size="10px" fill="#000" opacity="1">40</text><text text-anchor="end" transform="translate(189.5,7) rotate(270) translate(0,3)" font-family="sans-serif" font-size="10px" fill="#000" opacity="1">45</text><text text-anchor="end" transform="translate(209.5,7) rotate(270) translate(0,3)" font-family="sans-serif" font-size="10px" fill="#000" opacity="1">50</text><text text-anchor="end" transform="translate(229.5,7) rotate(270) translate(0,3)" font-family="sans-serif" font-size="10px" fill="#000" opacity="1">55</text><text text-anchor="end" transform="translate(249.5,7) rotate(270) translate(0,3)" font-family="sans-serif" font-size="10px" fill="#000" opacity="1">60</text><text text-anchor="end" transform="translate(269.5,7) rotate(270) translate(0,3)" font-family="sans-serif" font-size="10px" fill="#000" opacity="1">65</text><text text-anchor="end" transform="translate(289.5,7) rotate(270) translate(0,3)" font-family="sans-serif" font-size="10px" fill="#000" opacity="1">70</text><text text-anchor="end" transform="translate(309.5,7) rotate(270) translate(0,3)" font-family="sans-serif" font-size="10px" fill="#000" opacity="1">75</text><text text-anchor="end" transform="translate(329.5,7) rotate(270) translate(0,3)" font-family="sans-serif" font-size="10px" fill="#000" opacity="1">80</text><text text-anchor="end" transform="translate(349.5,7) rotate(270) translate(0,3)" font-family="sans-serif" font-size="10px" fill="#000" opacity="1">85</text><text text-anchor="end" transform="translate(369.5,7) rotate(270) translate(0,3)" font-family="sans-serif" font-size="10px" fill="#000" opacity="1">90</text></g><g class="mark-rule role-axis-domain" pointer-events="none"><line transform="translate(0,0)" x2="380" y2="0" stroke="#888" stroke-width="1" opacity="1"/></g><g class="mark-text role-axis-title" pointer-events="none"><text text-anchor="middle" transform="translate(190,36)" font-family="sans-serif" font-size="11px" font-weight="bold" fill="#000" opacity="1">age</text></g></g><path class="foreground" aria-hidden="true" d="" pointer-events="none" display="none"/></g></g><g class="mark-group role-axis" role="graphics-symbol" aria-roledescription="axis" aria-label="Y-axis titled 'population' for a linear scale with values from 0.0 to 1.0"><g transform="translate(0.5,0.5)"><path class="background" aria-hidden="true" d="M0,0h0v0h0Z" pointer-events="none"/><g><g class="mark-rule role-axis-tick" pointer-events="none"><line transform="translate(0,200)" x2="-5" y2="0" stroke="#888" stroke-width="1" opacity="1"/><line transform="translate(0,160)" x2="-5" y2="0" stroke="#888" stroke-width="1" opacity="1"/><line transform="translate(0,120)" x2="-5" y2="0" stroke="#888" stroke-width="1" opacity="1"/><line transform="translate(0,80)" x2="-5" y2="0" stroke="#888" stroke-width="1" opacity="1"/><line transform="translate(0,40)" x2="-5" y2="0" stroke="#888" stroke-width="1" opacity="1"/><line transform="translate(0,0)" x2="-5" y2="0" stroke="#888" stroke-width="1" opacity="1"/></g><g class="mark-text role-axis-label" pointer-events="none"><text text-anchor="end" transform="translate(-7,203)" font-family="sans-serif" font-size="10px" fill="#000" opacity="1">0.0</text><text text-anchor="end" transform="translate(-7,163)" font-family="sans-serif" font-size="10px" fill="#000" opacity="1">0.2</text><text text-anchor="end" transform="translate(-7,123)" font-family="sans-serif" font-size="10px" fill="#000" opacity="1">0.4</text><text text-anchor="end" transform="translate(-7,83)" font-family="sans-serif" font-size="10px" fill="#000" opacity="1">0.6</text><text text-anchor="end" transform="translate(-7,42.99999999999999)" font-family="sans-serif" font-size="10px" fill="#000" opacity="1">0.8</text><text text-anchor="end" transform="translate(-7,3)" font-family="sans-serif" font-size="10px" fill="#000" opacity="1">1.0</text></g><g class="mark-rule role-axis-domain" pointer-events="none"><line transform="translate(0,200)" x2="0" y2="-200" stroke="#888" stroke-width="1" opacity="1"/></g><g class="mark-text role-axis-title" pointer-events="none"><text text-anchor="middle" transform="translate(-35,100) rotate(-90) translate(0,-2)" font-family="sans-serif" font-size="11px" font-weight="bold" fill="#000" opacity="1">population</text></g></g><path class="foreground" aria-hidden="true" d="" pointer-events="none" display="none"/></g></g><g class="mark-rect role-mark marks" role="graphics-object" aria-roledescription="rect mark container"><path aria-label="age: 0; Sum of people: 0.511148375095; gender: Male" role="graphics-symbol" aria-roledescription="bar" d="M1,97.7703249810696h18v102.2296750189304h-18Z" fill="#f58518"/><path aria-label="age: 0; Sum of people: 0.488851624905; gender: Female" role="graphics-symbol" aria-roledescription="bar" d="M1,0h18v97.7703249810696h-18Z" fill="#4c78a8"/><path aria-label="age: 5; Sum of people: 0.511700824034; gender: Male" role="graphics-symbol" aria-roledescription="bar" d="M21,97.65983519310473h18v102.34016480689527h-18Z" fill="#f58518"/><path aria-label="age: 5; Sum of people: 0.488299175966; gender: Female" role="graphics-symbol" aria-roledescription="bar" d="M21,0h18v97.65983519310473h-18Z" fill="#4c78a8"/><path aria-label="age: 10; Sum of people: 0.513133085171; gender: Male" role="graphics-symbol" aria-roledescription="bar" d="M41,97.3733829657078h18v102.6266170342922h-18Z" fill="#f58518"/><path aria-label="age: 10; Sum of people: 0.486866914829; gender: Female" role="graphics-symbol" aria-roledescription="bar" d="M41,2.220446049250313e-14h18v97.37338296570778h-18Z" fill="#4c78a8"/><path aria-label="age: 15; Sum of people: 0.513666522697; gender: Male" role="graphics-symbol" aria-roledescription="bar" d="M61,97.26669546065226h18v102.73330453934774h-18Z" fill="#f58518"/><path aria-label="age: 15; Sum of people: 0.486333477303; gender: Female" role="graphics-symbol" aria-roledescription="bar" d="M61,0h18v97.26669546065226h-18Z" fill="#4c78a8"/><path aria-label="age: 20; Sum of people: 0.510681161335; gender: Male" role="graphics-symbol" aria-roledescription="bar" d="M81,97.86376773307988h18v102.13623226692012h-18Z" fill="#f58518"/><path aria-label="age: 20; Sum of people: 0.489318838665; gender: Female" role="graphics-symbol" aria-roledescription="bar" d="M81,0h18v97.86376773307988h-18Z" fill="#4c78a8"/><path aria-label="age: 25; Sum of people: 0.503675722182; gender: Male" role="graphics-symbol" aria-roledescription="bar" d="M101,99.26485556366671h18v100.73514443633329h-18Z" fill="#f58518"/><path aria-label="age: 25; Sum of people: 0.496324277818; gender: Female" role="graphics-symbol" aria-roledescription="bar" d="M101,2.220446049250313e-14h18v99.26485556366669h-18Z" fill="#4c78a8"/><path aria-label="age: 30; Sum of people: 0.502129944761; gender: Male" role="graphics-symbol" aria-roledescription="bar" d="M121,99.57401104787536h18v100.42598895212464h-18Z" fill="#f58518"/><path aria-label="age: 30; Sum of people: 0.497870055239; gender: Female" role="graphics-symbol" aria-roledescription="bar" d="M121,0h18v99.57401104787536h-18Z" fill="#4c78a8"/><path aria-label="age: 35; Sum of people: 0.496528359065; gender: Male" role="graphics-symbol" aria-roledescription="bar" d="M141,100.69432818701571h18v99.30567181298429h-18Z" fill="#f58518"/><path aria-label="age: 35; Sum of people: 0.503471640935; gender: Female" role="graphics-symbol" aria-roledescription="bar" d="M141,0h18v100.69432818701571h-18Z" fill="#4c78a8"/><path aria-label="age: 40; Sum of people: 0.49631006939; gender: Male" role="graphics-symbol" aria-roledescription="bar" d="M161,100.73798612204135h18v99.26201387795865h-18Z" fill="#f58518"/><path aria-label="age: 40; Sum of people: 0.50368993061; gender: Female" role="graphics-symbol" aria-roledescription="bar" d="M161,0h18v100.73798612204135h-18Z" fill="#4c78a8"/><path aria-label="age: 45; Sum of people: 0.491671388938; gender: Male" role="graphics-symbol" aria-roledescription="bar" d="M181,101.66572221232275h18v98.33427778767725h-18Z" fill="#f58518"/><path aria-label="age: 45; Sum of people: 0.508328611062; gender: Female" role="graphics-symbol" aria-roledescription="bar" d="M181,0h18v101.66572221232275h-18Z" fill="#4c78a8"/><path aria-label="age: 50; Sum of people: 0.488426504129; gender: Male" role="graphics-symbol" aria-roledescription="bar" d="M201,102.31469917418654h18v97.68530082581346h-18Z" fill="#f58518"/><path aria-label="age: 50; Sum of people: 0.511573495871; gender: Female" role="graphics-symbol" aria-roledescription="bar" d="M201,0h18v102.31469917418654h-18Z" fill="#4c78a8"/><path aria-label="age: 55; Sum of people: 0.482728927121; gender: Male" role="graphics-symbol" aria-roledescription="bar" d="M221,103.4542145758519h18v96.5457854241481h-18Z" fill="#f58518"/><path aria-label="age: 55; Sum of people: 0.517271072879; gender: Female" role="graphics-symbol" aria-roledescription="bar" d="M221,0h18v103.4542145758519h-18Z" fill="#4c78a8"/><path aria-label="age: 60; Sum of people: 0.474724620009; gender: Male" role="graphics-symbol" aria-roledescription="bar" d="M241,105.05507599820614h18v94.94492400179386h-18Z" fill="#f58518"/><path aria-label="age: 60; Sum of people: 0.525275379991; gender: Female" role="graphics-symbol" aria-roledescription="bar" d="M241,0h18v105.05507599820614h-18Z" fill="#4c78a8"/><path aria-label="age: 65; Sum of people: 0.481035560437; gender: Male" role="graphics-symbol" aria-roledescription="bar" d="M261,103.79288791257504h18v96.20711208742496h-18Z" fill="#f58518"/><path aria-label="age: 65; Sum of people: 0.518964439563; gender: Female" role="graphics-symbol" aria-roledescription="bar" d="M261,0h18v103.79288791257504h-18Z" fill="#4c78a8"/><path aria-label="age: 70; Sum of people: 0.422428985184; gender: Male" role="graphics-symbol" aria-roledescription="bar" d="M281,115.514202963128h18v84.485797036872h-18Z" fill="#f58518"/><path aria-label="age: 70; Sum of people: 0.577571014816; gender: Female" role="graphics-symbol" aria-roledescription="bar" d="M281,0h18v115.514202963128h-18Z" fill="#4c78a8"/><path aria-label="age: 75; Sum of people: 0.400734064463; gender: Male" role="graphics-symbol" aria-roledescription="bar" d="M301,119.85318710746489h18v80.14681289253511h-18Z" fill="#f58518"/><path aria-label="age: 75; Sum of people: 0.599265935537; gender: Female" role="graphics-symbol" aria-roledescription="bar" d="M301,2.220446049250313e-14h18v119.85318710746486h-18Z" fill="#4c78a8"/><path aria-label="age: 80; Sum of people: 0.371280053453; gender: Male" role="graphics-symbol" aria-roledescription="bar" d="M321,125.74398930947113h18v74.25601069052887h-18Z" fill="#f58518"/><path aria-label="age: 80; Sum of people: 0.628719946547; gender: Female" role="graphics-symbol" aria-roledescription="bar" d="M321,0h18v125.74398930947113h-18Z" fill="#4c78a8"/><path aria-label="age: 85; Sum of people: 0.328765958341; gender: Male" role="graphics-symbol" aria-roledescription="bar" d="M341,134.24680833186233h18v65.75319166813767h-18Z" fill="#f58518"/><path aria-label="age: 85; Sum of people: 0.671234041659; gender: Female" role="graphics-symbol" aria-roledescription="bar" d="M341,0h18v134.24680833186233h-18Z" fill="#4c78a8"/><path aria-label="age: 90; Sum of people: 0.240064844769; gender: Male" role="graphics-symbol" aria-roledescription="bar" d="M361,151.9870310461109h18v48.0129689538891h-18Z" fill="#f58518"/><path aria-label="age: 90; Sum of people: 0.759935155231; gender: Female" role="graphics-symbol" aria-roledescription="bar" d="M361,2.220446049250313e-14h18v151.98703104611087h-18Z" fill="#4c78a8"/></g><g class="mark-group role-legend" role="graphics-symbol" aria-roledescription="legend" aria-label="Symbol legend titled 'gender' for fill color with 2 values: Female, Male"><g transform="translate(398,0)"><path class="background" aria-hidden="true" d="M0,0h64v40h-64Z" pointer-events="none"/><g><g class="mark-group role-legend-entry"><g transform="translate(0,16)"><path class="background" aria-hidden="true" d="M0,0h0v0h0Z" pointer-events="none"/><g><g class="mark-group role-scope" role="graphics-object" aria-roledescription="group mark container"><g transform="translate(0,0)"><path class="background" aria-hidden="true" d="M0,0h64v11h-64Z" pointer-events="none" opacity="1"/><g><g class="mark-symbol role-legend-symbol" pointer-events="none"><path transform="translate(6,6)" d="M-5,-5h10v10h-10Z" fill="#4c78a8" stroke-width="1.5" opacity="1"/></g><g class="mark-text role-legend-label" pointer-events="none"><text text-anchor="start" transform="translate(16,9)" font-family="sans-serif" font-size="10px" fill="#000" opacity="1">Female</text></g></g><path class="foreground" aria-hidden="true" d="" pointer-events="none" display="none"/></g><g transform="translate(0,13)"><path class="background" aria-hidden="true" d="M0,0h64v11h-64Z" pointer-events="none" opacity="1"/><g><g class="mark-symbol role-legend-symbol" pointer-events="none"><path transform="translate(6,6)" d="M-5,-5h10v10h-10Z" fill="#f58518" stroke-width="1.5" opacity="1"/></g><g class="mark-text role-legend-label" pointer-events="none"><text text-anchor="start" transform="translate(16,9)" font-family="sans-serif" font-size="10px" fill="#000" opacity="1">Male</text></g></g><path class="foreground" aria-hidden="true" d="" pointer-events="none" display="none"/></g></g></g><path class="foreground" aria-hidden="true" d="" pointer-events="none" display="none"/></g></g><g class="mark-text role-legend-title" pointer-events="none"><text text-anchor="start" transform="translate(0,9)" font-family="sans-serif" font-size="11px" font-weight="bold" fill="#000" opacity="1">gender</text></g></g><path class="foreground" aria-hidden="true" d="" pointer-events="none" display="none"/></g></g></g><path class="foreground" aria-hidden="true" d="" display="none"/></g></g></g></svg>
